<svg xmlns="http://www.w3.org/2000/svg" xmlns:xlink="http://www.w3.org/1999/xlink" version="1.1" x="0px" y="0px" viewBox="0 0 52 52" style="enable-background:new 0 0 52 52;" xml:space="preserve"><style type="text/css">
	.st0{fill:none;stroke:#000000;stroke-width:2;stroke-linecap:round;stroke-linejoin:round;stroke-miterlimit:10;}
</style><g><g><path d="M32.0009766,13.8847656H12c-0.5527344,0-1-0.4472656-1-1s0.4472656-1,1-1h20.0009766c0.5527344,0,1,0.4472656,1,1    S32.5537109,13.8847656,32.0009766,13.8847656z"></path></g><g><path d="M32.0009766,21.0126953H12c-0.5527344,0-1-0.4472656-1-1s0.4472656-1,1-1h20.0009766c0.5527344,0,1,0.4472656,1,1    S32.5537109,21.0126953,32.0009766,21.0126953z"></path></g><g><path d="M32.0009766,29.0908203H12c-0.5527344,0-1-0.4472656-1-1s0.4472656-1,1-1h20.0009766c0.5527344,0,1,0.4472656,1,1    S32.5537109,29.0908203,32.0009766,29.0908203z"></path></g><g><path d="M32.0009766,44.2978516H12c-0.5527344,0-1-0.4472656-1-1s0.4472656-1,1-1h20.0009766c0.5527344,0,1,0.4472656,1,1    S32.5537109,44.2978516,32.0009766,44.2978516z"></path></g><g><path d="M32.0009766,37.1699219H12c-0.5527344,0-1-0.4472656-1-1s0.4472656-1,1-1h20.0009766c0.5527344,0,1,0.4472656,1,1    S32.5537109,37.1699219,32.0009766,37.1699219z"></path></g><g><path d="M12,50c-0.5527344,0-1-0.4472656-1-1V7.1816406C11,4.3242188,13.2431641,2,16,2s5,2.3242188,5,5.1816406    c0,0.5527344-0.4472656,1-1,1s-1-0.4472656-1-1C19,5.4277344,17.6542969,4,16,4s-3,1.4277344-3,3.1816406V49    C13,49.5527344,12.5527344,50,12,50z"></path></g><g><path d="M32.0009766,50c-0.5527344,0-1-0.4472656-1-1L31,7.6933594c0-2.8574219,2.2431641-5.1826172,5-5.1826172    s5,2.3251953,5,5.1826172c0,0.5527344-0.4472656,1-1,1s-1-0.4472656-1-1c0-1.7548828-1.3457031-3.1826172-3-3.1826172    s-3,1.4277344-3,3.1826172L33.0009766,49C33.0009766,49.5527344,32.5537109,50,32.0009766,50z"></path></g></g></svg>