<svg xmlns="http://www.w3.org/2000/svg" xmlns:xlink="http://www.w3.org/1999/xlink" version="1.1" x="0px" y="0px" viewBox="0 0 100 100" enable-background="new 0 0 100 100" xml:space="preserve"><path d="M75.317,18.572H72.36c-3.044,0-5.521,2.477-5.521,5.521v4.478h-5.931v-4.478c0-3.044-2.477-5.521-5.521-5.521h-2.957  c-3.044,0-5.521,2.477-5.521,5.521v5.949L19.421,78.44c-0.352,0.619-0.348,1.378,0.011,1.993s1.017,0.994,1.729,0.994h19.93  c0.72,0,1.384-0.387,1.739-1.013l14.08-24.789v23.802c0,1.104,0.896,2,2,2s2-0.896,2-2V75.32h15.93v4.107c0,1.104,0.896,2,2,2  s2-0.896,2-2V30.571v-6.478C80.839,21.049,78.362,18.572,75.317,18.572z M70.004,32.571h6.835v6.688H66.206L70.004,32.571z   M63.934,43.258h12.905v6.687h-15.93v-1.362L63.934,43.258z M60.909,53.945h15.93v6.688h-15.93V53.945z M72.36,22.572h2.957  c0.839,0,1.521,0.683,1.521,1.521v4.478H70.84v-4.478C70.84,23.254,71.521,22.572,72.36,22.572z M52.431,22.572h2.957  c0.839,0,1.521,0.683,1.521,1.521v4.478h-6v-4.478C50.909,23.254,51.592,22.572,52.431,22.572z M39.926,77.428h-15.33l25.477-44.857  h15.33L39.926,77.428z M60.909,71.32v-6.688h15.93v6.688H60.909z"></path></svg>