<svg xmlns="http://www.w3.org/2000/svg" xmlns:xlink="http://www.w3.org/1999/xlink" version="1.1" x="0px" y="0px" viewBox="0 0 48 48" style="enable-background:new 0 0 48 48;" xml:space="preserve"><path d="M4,4v40c0,0.28,0.22,0.5,0.5,0.5S5,44.28,5,44V4.5h5.5v27H8c-0.28,0-0.5,0.22-0.5,0.5v4c0,0.28,0.22,0.5,0.5,0.5h14  c0.28,0,0.5-0.22,0.5-0.5v-4c0-0.28-0.22-0.5-0.5-0.5h-2.5v-27h10v27H27c-0.28,0-0.5,0.22-0.5,0.5v4c0,0.28,0.22,0.5,0.5,0.5h14  c0.28,0,0.5-0.22,0.5-0.5v-4c0-0.28-0.22-0.5-0.5-0.5h-2.5v-27H43V44c0,0.28,0.22,0.5,0.5,0.5S44,44.28,44,44V4  c0-0.28-0.22-0.5-0.5-0.5H38h-8H19h-8H4.5C4.22,3.5,4,3.72,4,4z M30.5,4.5h7v27h-7V4.5z M30,34.5c0.28,0,0.5-0.22,0.5-0.5v-1.5h7V34  c0,0.28,0.22,0.5,0.5,0.5s0.5-0.22,0.5-0.5v-1.5h2v3h-13v-3h2V34C29.5,34.28,29.72,34.5,30,34.5z M11.5,4.5h7v27h-7V4.5z M11,34.5  c0.28,0,0.5-0.22,0.5-0.5v-1.5h7V34c0,0.28,0.22,0.5,0.5,0.5s0.5-0.22,0.5-0.5v-1.5h2v3h-13v-3h2V34C10.5,34.28,10.72,34.5,11,34.5z  "></path></svg>