<svg xmlns="http://www.w3.org/2000/svg" data-name="Layer 59" viewBox="0 0 100 100" x="0px" y="0px"><path d="M56.81,57.5h0A17.59,17.59,0,0,1,72.6,68.93c6.32,16,22.71,18.57,22.71,18.57V77s-7.3-.58-15-16.47c-5.66-11.68-19-13.13-23.5-13.28Z"></path><path d="M23.81,61.86V59H15a1.86,1.86,0,0,1-.34,0L5,87.5H15Z"></path><polygon points="23.81 57.5 23.81 35 15 35 15 57.5 15.16 57.5 23.81 57.5"></polygon><rect x="32.58" y="63.29" width="15.46" height="5"></rect><rect x="32.58" y="75.79" width="15.46" height="5"></rect><polygon points="25.31 59 25.31 87.5 31.08 87.5 31.08 80.79 31.08 75.79 31.08 68.29 31.08 63.29 31.08 59 25.32 59 25.31 59"></polygon><polygon points="49.55 63.29 49.55 68.29 49.55 75.79 49.55 80.79 49.55 87.5 55.31 87.5 55.31 59 49.55 59 49.55 63.29"></polygon><path d="M25.31,35V57.5h30V29h-30Zm15-1.74a9.24,9.24,0,1,1-9.24,9.24A9.24,9.24,0,0,1,40.31,33.26Z"></path><circle cx="40.31" cy="42.5" r="7.74"></circle><polygon points="55.31 27.5 60.31 27.5 40.31 12.5 19.69 27.5 25.31 27.5 55.31 27.5"></polygon></svg>